<svg width="1920" height="1080" viewBox="0 0 1920 1080" fill="none" xmlns="http://www.w3.org/2000/svg">
<g clip-path="url(#clip0)">
<rect width="1920" height="1080" fill="white"/>
<path d="M812 219C1510 -9 1841.5 158.333 1920 270.5V1081H1.5V299.112C-1.25009 289.681 -1.00587 279.937 1.5 270.5V299.112C21.4307 367.458 198.633 419.355 812 219Z" fill="url(#paint0_linear)"/>
<path d="M801.5 274C334.3 408.8 72.1667 227.167 -0.5 119.5V1083H1920V682.5C1741.83 490.167 1268.7 139.2 801.5 274Z" fill="url(#paint1_linear)"/>
<path d="M639 1080.5C639 995.763 605.339 914.497 545.421 854.579C485.503 794.662 404.237 761 319.5 761C234.763 761 153.497 794.661 93.5794 854.579C33.6615 914.497 1.27949e-05 995.763 0 1080.5L639 1080.5Z" fill="url(#paint2_linear)"/>
</g>
<defs>
<linearGradient id="paint0_linear" x1="959.764" y1="105.437" x2="1966" y2="423.5" gradientUnits="userSpaceOnUse">
<stop stop-color="#83EAA6"/>
<stop offset="1" stop-color="#21E3A9"/>
</linearGradient>
<linearGradient id="paint1_linear" x1="-86" y1="104" x2="1981.5" y2="1101.5" gradientUnits="userSpaceOnUse">
<stop stop-color="#3DC75B"/>
<stop offset="0.9999" stop-color="#B5D633"/>
<stop offset="1" stop-color="#C4C4C4" stop-opacity="0"/>
</linearGradient>
<linearGradient id="paint2_linear" x1="117" y1="933.5" x2="541" y2="1239" gradientUnits="userSpaceOnUse">
<stop stop-color="#A7D438" stop-opacity="0.52"/>
<stop offset="1" stop-color="#2EE5A9" stop-opacity="0.35"/>
</linearGradient>
<clipPath id="clip0">
<rect width="1920" height="1080" fill="white"/>
</clipPath>
</defs>
</svg>
