<svg width="502" height="194" viewBox="0 0 502 194" fill="none" xmlns="http://www.w3.org/2000/svg">
<rect x="285.577" y="25.1775" width="46.4789" height="25.4181" rx="3" transform="rotate(75.223 285.577 25.1775)" fill="#DCDCDC"/>
<rect x="236.119" y="25" width="64" height="35" rx="3" transform="rotate(33.1112 236.119 25)" fill="white"/>
<rect x="290" y="73.818" width="53.2472" height="29.1196" rx="3" transform="rotate(-24.1891 290 73.818)" fill="white"/>
<path d="M89.23 47V68H87.1V51.2L78.85 65.33H77.8L69.55 51.29V68H67.42V47H69.25L78.37 62.57L87.4 47H89.23ZM95.6223 52.22H97.7523V68H95.6223V52.22ZM96.7023 48.77C96.2623 48.77 95.8923 48.62 95.5923 48.32C95.2923 48.02 95.1423 47.66 95.1423 47.24C95.1423 46.84 95.2923 46.49 95.5923 46.19C95.8923 45.89 96.2623 45.74 96.7023 45.74C97.1423 45.74 97.5123 45.89 97.8123 46.19C98.1123 46.47 98.2623 46.81 98.2623 47.21C98.2623 47.65 98.1123 48.02 97.8123 48.32C97.5123 48.62 97.1423 48.77 96.7023 48.77ZM111.719 52.1C113.699 52.1 115.269 52.68 116.429 53.84C117.609 54.98 118.199 56.65 118.199 58.85V68H116.069V59.06C116.069 57.42 115.659 56.17 114.839 55.31C114.019 54.45 112.849 54.02 111.329 54.02C109.629 54.02 108.279 54.53 107.279 55.55C106.299 56.55 105.809 57.94 105.809 59.72V68H103.679V52.22H105.719V55.13C106.299 54.17 107.099 53.43 108.119 52.91C109.159 52.37 110.359 52.1 111.719 52.1ZM123.982 52.22H126.112V68H123.982V52.22ZM125.062 48.77C124.622 48.77 124.252 48.62 123.952 48.32C123.652 48.02 123.502 47.66 123.502 47.24C123.502 46.84 123.652 46.49 123.952 46.19C124.252 45.89 124.622 45.74 125.062 45.74C125.502 45.74 125.872 45.89 126.172 46.19C126.472 46.47 126.622 46.81 126.622 47.21C126.622 47.65 126.472 48.02 126.172 48.32C125.872 48.62 125.502 48.77 125.062 48.77Z" fill="#E7AC51"/>
<path d="M140.4 90.6L123.408 141H117.792L103.032 98.016L88.2 141H82.656L65.664 90.6H71.136L85.68 133.944L100.728 90.6H105.696L120.528 134.16L135.288 90.6H140.4ZM159.454 102.84C164.398 102.84 168.19 104.088 170.83 106.584C173.47 109.032 174.79 112.68 174.79 117.528V141H169.894V135.096C168.742 137.064 167.038 138.6 164.782 139.704C162.574 140.808 159.934 141.36 156.862 141.36C152.638 141.36 149.278 140.352 146.782 138.336C144.286 136.32 143.038 133.656 143.038 130.344C143.038 127.128 144.19 124.536 146.494 122.568C148.846 120.6 152.566 119.616 157.654 119.616H169.678V117.312C169.678 114.048 168.766 111.576 166.942 109.896C165.118 108.168 162.454 107.304 158.95 107.304C156.55 107.304 154.246 107.712 152.038 108.528C149.83 109.296 147.934 110.376 146.35 111.768L144.046 107.952C145.966 106.32 148.27 105.072 150.958 104.208C153.646 103.296 156.478 102.84 159.454 102.84ZM157.654 137.328C160.534 137.328 163.006 136.68 165.07 135.384C167.134 134.04 168.67 132.12 169.678 129.624V123.432H157.798C151.318 123.432 148.078 125.688 148.078 130.2C148.078 132.408 148.918 134.16 150.598 135.456C152.278 136.704 154.63 137.328 157.654 137.328ZM193.571 110.544C194.771 108 196.547 106.08 198.899 104.784C201.299 103.488 204.251 102.84 207.755 102.84V107.808L206.531 107.736C202.547 107.736 199.427 108.96 197.171 111.408C194.915 113.856 193.787 117.288 193.787 121.704V141H188.675V103.128H193.571V110.544ZM227.444 141.36C224.372 141.36 221.42 140.928 218.588 140.064C215.804 139.152 213.62 138.024 212.036 136.68L214.34 132.648C215.924 133.896 217.916 134.928 220.316 135.744C222.716 136.512 225.212 136.896 227.804 136.896C231.26 136.896 233.804 136.368 235.436 135.312C237.116 134.208 237.956 132.672 237.956 130.704C237.956 129.312 237.5 128.232 236.588 127.464C235.676 126.648 234.524 126.048 233.132 125.664C231.74 125.232 229.892 124.824 227.588 124.44C224.516 123.864 222.044 123.288 220.172 122.712C218.3 122.088 216.692 121.056 215.348 119.616C214.052 118.176 213.404 116.184 213.404 113.64C213.404 110.472 214.724 107.88 217.364 105.864C220.004 103.848 223.676 102.84 228.38 102.84C230.828 102.84 233.276 103.176 235.724 103.848C238.172 104.472 240.188 105.312 241.772 106.368L239.54 110.472C236.42 108.312 232.7 107.232 228.38 107.232C225.116 107.232 222.644 107.808 220.964 108.96C219.332 110.112 218.516 111.624 218.516 113.496C218.516 114.936 218.972 116.088 219.884 116.952C220.844 117.816 222.02 118.464 223.412 118.896C224.804 119.28 226.724 119.688 229.172 120.12C232.196 120.696 234.62 121.272 236.444 121.848C238.268 122.424 239.828 123.408 241.124 124.8C242.42 126.192 243.068 128.112 243.068 130.56C243.068 133.872 241.676 136.512 238.892 138.48C236.156 140.4 232.34 141.36 227.444 141.36ZM268.215 141.36C264.471 141.36 261.111 140.544 258.135 138.912C255.207 137.28 252.903 135 251.223 132.072C249.543 129.096 248.703 125.76 248.703 122.064C248.703 118.368 249.543 115.056 251.223 112.128C252.903 109.2 255.207 106.92 258.135 105.288C261.111 103.656 264.471 102.84 268.215 102.84C271.479 102.84 274.383 103.488 276.927 104.784C279.519 106.032 281.559 107.88 283.047 110.328L279.231 112.92C277.983 111.048 276.399 109.656 274.479 108.744C272.559 107.784 270.471 107.304 268.215 107.304C265.479 107.304 263.007 107.928 260.799 109.176C258.639 110.376 256.935 112.104 255.687 114.36C254.487 116.616 253.887 119.184 253.887 122.064C253.887 124.992 254.487 127.584 255.687 129.84C256.935 132.048 258.639 133.776 260.799 135.024C263.007 136.224 265.479 136.824 268.215 136.824C270.471 136.824 272.559 136.368 274.479 135.456C276.399 134.544 277.983 133.152 279.231 131.28L283.047 133.872C281.559 136.32 279.519 138.192 276.927 139.488C274.335 140.736 271.431 141.36 268.215 141.36ZM297.985 110.544C299.185 108 300.961 106.08 303.313 104.784C305.713 103.488 308.665 102.84 312.169 102.84V107.808L310.945 107.736C306.961 107.736 303.841 108.96 301.585 111.408C299.329 113.856 298.201 117.288 298.201 121.704V141H293.089V103.128H297.985V110.544ZM336.553 141.36C332.905 141.36 329.617 140.544 326.689 138.912C323.761 137.232 321.457 134.928 319.777 132C318.097 129.072 317.257 125.76 317.257 122.064C317.257 118.368 318.097 115.056 319.777 112.128C321.457 109.2 323.761 106.92 326.689 105.288C329.617 103.656 332.905 102.84 336.553 102.84C340.201 102.84 343.489 103.656 346.417 105.288C349.345 106.92 351.625 109.2 353.257 112.128C354.937 115.056 355.777 118.368 355.777 122.064C355.777 125.76 354.937 129.072 353.257 132C351.625 134.928 349.345 137.232 346.417 138.912C343.489 140.544 340.201 141.36 336.553 141.36ZM336.553 136.824C339.241 136.824 341.641 136.224 343.753 135.024C345.913 133.776 347.593 132.024 348.793 129.768C349.993 127.512 350.593 124.944 350.593 122.064C350.593 119.184 349.993 116.616 348.793 114.36C347.593 112.104 345.913 110.376 343.753 109.176C341.641 107.928 339.241 107.304 336.553 107.304C333.865 107.304 331.441 107.928 329.281 109.176C327.169 110.376 325.489 112.104 324.241 114.36C323.041 116.616 322.441 119.184 322.441 122.064C322.441 124.944 323.041 127.512 324.241 129.768C325.489 132.024 327.169 133.776 329.281 135.024C331.441 136.224 333.865 136.824 336.553 136.824ZM366.214 87.576H371.326V141H366.214V87.576ZM385.55 87.576H390.662V141H385.55V87.576ZM415.038 141.36C411.966 141.36 409.014 140.928 406.182 140.064C403.398 139.152 401.214 138.024 399.63 136.68L401.934 132.648C403.518 133.896 405.51 134.928 407.91 135.744C410.31 136.512 412.806 136.896 415.398 136.896C418.854 136.896 421.398 136.368 423.03 135.312C424.71 134.208 425.55 132.672 425.55 130.704C425.55 129.312 425.094 128.232 424.182 127.464C423.27 126.648 422.118 126.048 420.726 125.664C419.334 125.232 417.486 124.824 415.182 124.44C412.11 123.864 409.638 123.288 407.766 122.712C405.894 122.088 404.286 121.056 402.942 119.616C401.646 118.176 400.998 116.184 400.998 113.64C400.998 110.472 402.318 107.88 404.958 105.864C407.598 103.848 411.27 102.84 415.974 102.84C418.422 102.84 420.87 103.176 423.318 103.848C425.766 104.472 427.782 105.312 429.366 106.368L427.134 110.472C424.014 108.312 420.294 107.232 415.974 107.232C412.71 107.232 410.238 107.808 408.558 108.96C406.926 110.112 406.11 111.624 406.11 113.496C406.11 114.936 406.566 116.088 407.478 116.952C408.438 117.816 409.614 118.464 411.006 118.896C412.398 119.28 414.318 119.688 416.766 120.12C419.79 120.696 422.214 121.272 424.038 121.848C425.862 122.424 427.422 123.408 428.718 124.8C430.014 126.192 430.662 128.112 430.662 130.56C430.662 133.872 429.27 136.512 426.486 138.48C423.75 140.4 419.934 141.36 415.038 141.36Z" fill="#E7AC51"/>
<path d="M64 70L213 70L213 89L64 89L64 70Z" fill="#929292"/>
<path d="M239 79.2433L213 89L213 70L239 79.2433Z" fill="#929292"/>
<rect x="64" y="105" width="9" height="51" transform="rotate(-180 64 105)" fill="#D7D7D7"/>
<rect x="25" y="84" width="9" height="30" transform="rotate(-90 25 84)" fill="#D7D7D7"/>
<circle cx="17.5" cy="79.5" r="9.5" transform="rotate(-180 17.5 79.5)" fill="#A6A6A6"/>
</svg>
